<svg width="48" height="33" viewBox="0 0 48 33" fill="none" xmlns="http://www.w3.org/2000/svg">
<path d="M19.4561 31.9961C20.6968 32.3345 21.8408 31.6738 22.2275 30.417L30.0908 3.47559C30.4292 2.2832 29.833 1.13916 28.5923 0.784668C27.3677 0.446289 26.2559 1.01025 25.8691 2.36377L18.0381 29.1924C17.6675 30.4653 18.1831 31.6416 19.4561 31.9961ZM47.8315 16.3662C47.8315 15.7378 47.5576 15.0933 47.0098 14.6099L36.8584 5.42529C35.8594 4.53906 34.5381 4.57129 33.7002 5.50586C32.8623 6.45654 32.9429 7.77783 33.9097 8.64795L42.4336 16.3662L33.9097 24.0845C32.9429 24.9385 32.8623 26.2759 33.7002 27.2104C34.5381 28.145 35.8594 28.1772 36.8584 27.291L47.0098 18.1226C47.5576 17.6392 47.8315 16.9946 47.8315 16.3662ZM0.168457 16.3662C0.168457 16.9946 0.442383 17.6392 0.990234 18.1226L11.1577 27.291C12.1406 28.1772 13.4619 28.145 14.2998 27.2104C15.1377 26.2759 15.0571 24.9385 14.0903 24.0845L5.56641 16.3662L14.0903 8.64795C15.0571 7.77783 15.1377 6.45654 14.2998 5.50586C13.4619 4.57129 12.1406 4.53906 11.1577 5.42529L0.990234 14.6099C0.442383 15.0933 0.168457 15.7378 0.168457 16.3662Z" fill="black"/>
</svg>
