<svg width="31" height="36" viewBox="0 0 31 36" fill="none" xmlns="http://www.w3.org/2000/svg">
<path d="M19.1299 30.5771H27.8472C29.6357 30.5771 30.667 29.6104 30.667 27.8218V27.3223C30.6831 22.7783 25.7363 19.1045 23.8511 17.2837C23.2549 16.6875 22.9165 16.188 22.9165 15.3662C22.9165 14.5605 23.2549 14.0771 23.8511 13.4648C25.7363 11.6118 30.667 8.09912 30.667 3.42627V2.94287C30.667 1.17041 29.6357 0.1875 27.8472 0.1875H12.0239C10.2676 0.1875 9.31689 1.17041 9.31689 2.84619V3.42627C9.31689 8.09912 14.2476 11.6118 16.1167 13.4648C16.729 14.0771 17.0674 14.5605 17.0674 15.3662C17.0674 16.188 16.729 16.6875 16.1167 17.2837C15.7783 17.5898 15.3594 17.9766 14.876 18.4438C16.4067 19.459 17.6797 20.8608 18.5015 22.5044L18.9526 22.166C19.1138 22.0532 19.2266 21.9082 19.2266 21.6987V13.6582C19.2266 12.8525 19.0332 12.3853 18.4048 11.8213C17.5669 11.0962 15.7461 9.74268 14.8921 8.61475C14.5698 8.1958 14.6021 7.85742 14.9888 7.85742H24.9951C25.3818 7.85742 25.4141 8.1958 25.1079 8.61475C24.2378 9.74268 22.417 11.0962 21.5791 11.8052C20.9507 12.3691 20.7412 12.8042 20.7412 13.6582V21.6987C20.7412 21.9082 20.8862 22.0532 21.0474 22.166L26.4292 26.2266C27.2349 26.8228 26.9126 27.8218 26.0425 27.8218H19.6455C19.5972 28.7886 19.436 29.6909 19.1299 30.5771ZM9.23633 35.9268C13.7803 35.9268 17.5991 32.124 17.5991 27.5479C17.5991 22.9717 13.8286 19.1851 9.23633 19.1851C4.64404 19.1851 0.857422 22.9717 0.857422 27.5479C0.857422 32.1562 4.64404 35.9268 9.23633 35.9268ZM9.23633 32.9136C8.51123 32.9136 8.04395 32.4302 8.04395 31.7373V28.7402H5.06299C4.37012 28.7402 3.88672 28.2729 3.88672 27.564C3.87061 26.8389 4.354 26.3716 5.06299 26.3716H8.04395V23.4067C8.04395 22.6978 8.51123 22.2305 9.23633 22.2144C9.94531 22.2144 10.4126 22.6816 10.4126 23.4067V26.3716H13.3936C14.1025 26.3716 14.5698 26.8389 14.5698 27.564C14.5698 28.2729 14.1025 28.7402 13.3936 28.7402H10.4126V31.7373C10.4126 32.4302 9.94531 32.9136 9.23633 32.9136Z" fill="black"/>
</svg>
