<svg width="38" height="38" viewBox="0 0 38 38" fill="none" xmlns="http://www.w3.org/2000/svg">
<path d="M19 37.6426C29.0547 37.6426 37.334 29.3633 37.334 19.3086C37.334 9.27148 29.0371 0.974609 18.9824 0.974609C8.94531 0.974609 0.666016 9.27148 0.666016 19.3086C0.666016 29.3633 8.94531 37.6426 19 37.6426ZM8.38281 8.49805C10.1055 6.81055 12.2324 5.50977 14.6055 4.77148C13.3398 6.01953 12.2852 7.79492 11.4766 9.95703C10.2637 9.57031 9.22656 9.07812 8.38281 8.49805ZM23.4121 4.78906C25.7676 5.52734 27.8945 6.81055 29.6172 8.51562C28.7734 9.0957 27.7363 9.57031 26.5234 9.95703C25.7324 7.8125 24.6602 6.03711 23.4121 4.78906ZM20.2832 5.50977C21.707 6.21289 23.0078 8.07617 23.957 10.5898C22.8145 10.7832 21.584 10.9062 20.2832 10.959V5.50977ZM14.043 10.5898C14.9922 8.07617 16.293 6.21289 17.7168 5.50977V10.959C16.416 10.9062 15.1855 10.7832 14.043 10.5898ZM3.86523 18.0254C4.11133 15.2129 5.13086 12.5938 6.73047 10.4141C7.76758 11.2051 9.13867 11.873 10.7383 12.3828C10.3164 14.1055 10.0527 16.0039 9.96484 18.0254H3.86523ZM28.0352 18.0254C27.9473 16.0039 27.6836 14.1055 27.2617 12.3828C28.8613 11.873 30.2324 11.2051 31.2695 10.4316C32.8691 12.6113 33.8887 15.2129 34.1348 18.0254H28.0352ZM12.584 18.0254C12.6719 16.2676 12.918 14.5801 13.3047 13.0332C14.6758 13.2969 16.1699 13.4727 17.7168 13.543V18.0254H12.584ZM20.2832 18.0254V13.543C21.8301 13.4727 23.3242 13.2969 24.6953 13.0332C25.082 14.5801 25.3281 16.2676 25.416 18.0254H20.2832ZM3.86523 20.5918H9.96484C10.0352 22.6484 10.3164 24.5645 10.7559 26.3223C9.15625 26.832 7.80273 27.4824 6.76562 28.2559C5.14844 26.0586 4.11133 23.4219 3.86523 20.5918ZM12.584 20.5918H17.7168V25.1621C16.1699 25.2324 14.6934 25.4082 13.3047 25.6719C12.918 24.0898 12.6719 22.3672 12.584 20.5918ZM20.2832 25.1621V20.5918H25.416C25.3281 22.3672 25.082 24.0898 24.6953 25.6719C23.3066 25.4082 21.8301 25.2324 20.2832 25.1621ZM27.2441 26.3223C27.6836 24.5645 27.9648 22.6484 28.0352 20.5918H34.1348C33.8887 23.4219 32.8516 26.0586 31.2344 28.2559C30.1973 27.4824 28.8438 26.832 27.2441 26.3223ZM14.0781 28.1152C15.2031 27.9219 16.416 27.7812 17.7168 27.7285V33.1426C16.3105 32.4219 15.0098 30.5762 14.0781 28.1152ZM20.2832 27.7285C21.584 27.7812 22.7969 27.9219 23.9219 28.1152C22.9902 30.5762 21.6895 32.4219 20.2832 33.1426V27.7285ZM26.5059 28.7305C27.7012 29.1172 28.7383 29.5918 29.582 30.1543C27.8594 31.8418 25.75 33.1074 23.4297 33.8281C24.6602 32.5977 25.7148 30.8574 26.5059 28.7305ZM8.43555 30.1543C9.26172 29.5918 10.2988 29.1172 11.4941 28.7305C12.2852 30.8574 13.3398 32.5977 14.5703 33.8281C12.25 33.1074 10.1406 31.8418 8.43555 30.1543Z" fill="black"/>
</svg>
