<svg xmlns="http://www.w3.org/2000/svg" width="34" height="34" fill="none" viewBox="0 0 34 34"><path fill="#000" d="M6.38281 33.9023H27.6172C31.5195 33.9023 33.5762 31.8633 33.5762 28.0137V6.65625C33.5762 2.80664 31.5195 0.75 27.6172 0.75H6.38281C2.49805 0.75 0.423828 2.80664 0.423828 6.65625V28.0137C0.423828 31.8633 2.49805 33.9023 6.38281 33.9023ZM6.7168 30C5.16992 30 4.34375 29.209 4.34375 27.5918V7.06055C4.34375 5.44336 5.16992 4.66992 6.7168 4.66992H27.3008C28.8125 4.66992 29.6738 5.44336 29.6738 7.06055V27.5918C29.6738 29.209 28.8125 30 27.3008 30H6.7168ZM9.95117 7.5C8.59766 7.5 7.56055 8.57227 7.56055 10.084C7.56055 12.457 10.1797 14.373 11.5156 15.2871C11.6738 15.3926 11.8496 15.4805 11.9902 15.4805C12.1133 15.4805 12.2891 15.375 12.4473 15.2871C13.7832 14.4785 16.3848 12.457 16.3848 10.084C16.3848 8.57227 15.3477 7.5 13.959 7.5C13.0625 7.5 12.3594 8.04492 11.9727 8.74805C11.5859 8.04492 10.8828 7.5 9.95117 7.5ZM8.7207 20.7715H25.1738C25.8242 20.7715 26.3164 20.2617 26.3164 19.6113C26.3164 18.9785 25.8242 18.4863 25.1738 18.4863H8.7207C8.05273 18.4863 7.56055 18.9785 7.56055 19.6113C7.56055 20.2617 8.05273 20.7715 8.7207 20.7715ZM8.7207 26.3965H20.9551C21.6055 26.3965 22.0977 25.9043 22.0977 25.2715C22.0977 24.6211 21.6055 24.1113 20.9551 24.1113H8.7207C8.05273 24.1113 7.56055 24.6211 7.56055 25.2715C7.56055 25.9043 8.05273 26.3965 8.7207 26.3965Z"/></svg>