<svg xmlns="http://www.w3.org/2000/svg" width="75" height="75" fill="none" viewBox="0 0 75 75"><mask id="path-1-inside-1" fill="#fff"><path d="M37.5 0L56.25 5.02405L69.976 18.75L75 37.5L69.976 56.25L56.25 69.976L37.5 75L18.75 69.976L5.02405 56.25L0 37.5L5.02405 18.75L18.75 5.02405L37.5 0Z"/></mask><path fill="#000" d="M37.5 0L38 -0.866025L37.5 -1.1547L37 -0.866025L37.5 0ZM69.976 18.75H70.976V18.1726L70.476 17.884L69.976 18.75ZM69.976 56.25L70.476 57.116L70.976 56.8274V56.25H69.976ZM37.5 75L37 75.866L37.5 76.1547L38 75.866L37.5 75ZM5.02405 56.25H4.02405V56.8274L4.52405 57.116L5.02405 56.25ZM5.02405 18.75L4.52405 17.884L4.02405 18.1726V18.75H5.02405ZM37 -0.866025L4.52405 17.884L5.52405 19.616L38 0.866025L37 -0.866025ZM37 0.866025L69.476 19.616L70.476 17.884L38 -0.866025L37 0.866025ZM68.976 18.75V37.5H70.976V18.75H68.976ZM68.976 37.5V56.25H70.976V37.5H68.976ZM6.02405 56.25V37.5H4.02405V56.25H6.02405ZM6.02405 37.5V18.75H4.02405V37.5H6.02405ZM4.52405 57.116L37 75.866L38 74.134L5.52405 55.384L4.52405 57.116ZM69.476 55.384L37 74.134L38 75.866L70.476 57.116L69.476 55.384ZM5.02405 19.75H26.6747V17.75H5.02405V19.75ZM26.6747 19.75H37.5V17.75H26.6747V19.75ZM37.5 19.75H48.3253V17.75H37.5V19.75ZM48.3253 19.75H69.976V17.75H48.3253V19.75ZM4.15802 19.25L14.9833 38L16.7154 37L5.89007 18.25L4.15802 19.25ZM14.9833 38L25.8087 56.75L27.5407 55.75L16.7154 37L14.9833 38ZM25.8087 56.75L36.634 75.5L38.366 74.5L27.5407 55.75L25.8087 56.75ZM36.634 -0.5L25.8087 18.25L27.5407 19.25L38.366 0.5L36.634 -0.5ZM25.8087 18.25L14.9833 37L16.7154 38L27.5407 19.25L25.8087 18.25ZM14.9833 37L4.15802 55.75L5.89007 56.75L16.7154 38L14.9833 37ZM16.504 38.2559L38.1547 19.5059L36.8453 17.9941L15.1947 36.7441L16.504 38.2559ZM38.366 75.5L49.1913 56.75L47.4593 55.75L36.634 74.5L38.366 75.5ZM49.1913 56.75L60.0167 38L58.2846 37L47.4593 55.75L49.1913 56.75ZM60.0167 38L70.842 19.25L69.1099 18.25L58.2846 37L60.0167 38ZM36.634 0.5L47.4593 19.25L49.1913 18.25L38.366 -0.5L36.634 0.5ZM47.4593 19.25L58.2846 38L60.0167 37L49.1913 18.25L47.4593 19.25ZM58.2846 38L69.1099 56.75L70.842 55.75L60.0167 37L58.2846 38ZM59.8053 36.7441L38.1547 17.9941L36.8453 19.5059L58.496 38.2559L59.8053 36.7441ZM5.02405 57.25H26.6747V55.25H5.02405V57.25ZM26.6747 57.25H37.5V55.25H26.6747V57.25ZM37.5 57.25H48.3253V55.25H37.5V57.25ZM48.3253 57.25H69.976V55.25H48.3253V57.25ZM38.1547 57.0059L59.8053 38.2559L58.496 36.7441L36.8453 55.4941L38.1547 57.0059ZM15.1947 38.2559L36.8453 57.0059L38.1547 55.4941L16.504 36.7441L15.1947 38.2559ZM36.5 0V18.75H38.5V0H36.5ZM36.5 18.75V37.5H38.5V18.75H36.5ZM36.5 37.5V56.25H38.5V37.5H36.5ZM36.5 56.25V75H38.5V56.25H36.5ZM0 38.5H5.02405V36.5H0V38.5ZM5.02405 38.5H15.8494V36.5H5.02405V38.5ZM15.8494 38.5H37.5V36.5H15.8494V38.5ZM37.5 38.5H59.1506V36.5H37.5V38.5ZM59.1506 38.5H69.976V36.5H59.1506V38.5ZM69.976 38.5H75V36.5H69.976V38.5ZM37.5 0L38.0176 -1.93185L37.5 -2.07055L36.9824 -1.93185L37.5 0ZM56.25 5.02405L57.6642 3.60983L57.2853 3.2309L56.7676 3.0922L56.25 5.02405ZM69.976 18.75L71.9078 18.2324L71.7691 17.7147L71.3902 17.3358L69.976 18.75ZM75 37.5L76.9319 38.0176L77.0705 37.5L76.9319 36.9824L75 37.5ZM69.976 56.25L71.3902 57.6642L71.7691 57.2853L71.9078 56.7676L69.976 56.25ZM56.25 69.976L56.7676 71.9078L57.2853 71.7691L57.6642 71.3902L56.25 69.976ZM37.5 75L36.9824 76.9319L37.5 77.0705L38.0176 76.9319L37.5 75ZM18.75 69.976L17.3358 71.3902L17.7147 71.7691L18.2324 71.9078L18.75 69.976ZM5.02405 56.25L3.0922 56.7676L3.2309 57.2853L3.60983 57.6642L5.02405 56.25ZM0 37.5L-1.93185 36.9824L-2.07055 37.5L-1.93185 38.0176L0 37.5ZM5.02405 18.75L3.60983 17.3358L3.2309 17.7147L3.0922 18.2324L5.02405 18.75ZM18.75 5.02405L18.2324 3.0922L17.7147 3.2309L17.3358 3.60983L18.75 5.02405ZM36.9824 1.93185L55.7324 6.9559L56.7676 3.0922L38.0176 -1.93185L36.9824 1.93185ZM54.8358 6.43826L68.5617 20.1642L71.3902 17.3358L57.6642 3.60983L54.8358 6.43826ZM68.0441 19.2676L73.0681 38.0176L76.9319 36.9824L71.9078 18.2324L68.0441 19.2676ZM73.0681 36.9824L68.0441 55.7324L71.9078 56.7676L76.9319 38.0176L73.0681 36.9824ZM68.5617 54.8358L54.8358 68.5617L57.6642 71.3902L71.3902 57.6642L68.5617 54.8358ZM55.7324 68.0441L36.9824 73.0681L38.0176 76.9319L56.7676 71.9078L55.7324 68.0441ZM38.0176 73.0681L19.2676 68.0441L18.2324 71.9078L36.9824 76.9319L38.0176 73.0681ZM20.1642 68.5617L6.43826 54.8358L3.60983 57.6642L17.3358 71.3902L20.1642 68.5617ZM6.9559 55.7324L1.93185 36.9824L-1.93185 38.0176L3.0922 56.7676L6.9559 55.7324ZM1.93185 38.0176L6.9559 19.2676L3.0922 18.2324L-1.93185 36.9824L1.93185 38.0176ZM6.43826 20.1642L20.1642 6.43826L17.3358 3.60983L3.60983 17.3358L6.43826 20.1642ZM19.2676 6.9559L38.0176 1.93185L36.9824 -1.93185L18.2324 3.0922L19.2676 6.9559Z" mask="url(#path-1-inside-1)"/></svg>