<svg xmlns="http://www.w3.org/2000/svg" xmlns:xlink="http://www.w3.org/1999/xlink" width="138" height="21" version="1.1" viewBox="0 0 138 21"><title>shooting star</title><desc>Created with Sketch.</desc><defs><linearGradient id="linearGradient-1" x1="1.851%" x2="98.395%" y1="50%" y2="50%"><stop offset="0%" stop-color="#FFF" stop-opacity=".4"/><stop offset="100%" stop-color="#FFF"/></linearGradient><path id="path-2" d="M198.499983,159.995833 L316.500052,159.0125 L316.500052,159.0125 C317.321576,159.005654 317.993102,159.66608 317.999948,160.487604 C317.999983,160.491736 318,160.495868 318,160.5 L318,160.5 L318,160.5 C318,161.321552 317.334,161.987552 316.512448,161.987552 C316.508316,161.987552 316.504184,161.987535 316.500052,161.9875 L198.499983,161.004167 L198.499983,161.004167 C198.223178,161.00186 198,160.776814 198,160.5 L198,160.5 L198,160.5 C198,160.223186 198.223178,159.99814 198.499983,159.995833 Z"/><filter id="filter-3" width="125%" height="1108.4%" x="-15%" y="-504.2%" filterUnits="objectBoundingBox"><feMorphology in="SourceAlpha" operator="dilate" radius="1" result="shadowSpreadOuter1"/><feOffset dx="-3" dy="0" in="shadowSpreadOuter1" result="shadowOffsetOuter1"/><feGaussianBlur in="shadowOffsetOuter1" result="shadowBlurOuter1" stdDeviation="3.5"/><feColorMatrix in="shadowBlurOuter1" type="matrix" values="0 0 0 0 1 0 0 0 0 1 0 0 0 0 1 0 0 0 0.20533288 0"/></filter></defs><g id="Design" fill="none" fill-rule="evenodd" stroke="none" stroke-width="1" opacity=".8"><g id="100_Home" transform="translate(-196.000000, -250.000000)"><g id="1-Hero" transform="translate(10.000000, 100.000000)"><g id="Stars"><g id="shooting-star" opacity=".5"><use fill="#000" fill-opacity="1" filter="url(#filter-3)" xlink:href="#path-2"/><use fill="url(#linearGradient-1)" fill-rule="evenodd" xlink:href="#path-2"/></g></g></g></g></g></svg>