<svg xmlns="http://www.w3.org/2000/svg" xmlns:xlink="http://www.w3.org/1999/xlink" id="Layer_1" x="0" y="0" version="1.1" viewBox="0 0 1140 622" xml:space="preserve" style="enable-background:new 0 0 1140 622"><style type="text/css">.st0{opacity:.7;fill:#fff}</style><circle id="Oval-2" cx="499" cy="2" r="1" class="st0"/><circle id="Oval-2_2_" cx="-11" cy="311" r="1" class="st0"/><circle id="Oval-2_3_" cx="39" cy="265" r="1" class="st0"/><circle id="Oval-2_4_" cx="151" cy="336" r="1" class="st0"/><circle id="Oval-2_5_" cx="202" cy="283" r="1" class="st0"/><circle id="Oval-2_6_" cx="151" cy="165" r="1" class="st0"/><circle id="Oval-2_7_" cx="204" cy="117" r="1" class="st0"/><circle id="Oval-2_8_" cx="168" cy="73" r="1" class="st0"/><circle id="Oval-2_9_" cx="258" cy="97" r="1" class="st0"/><circle id="Oval-2_10_" cx="30" cy="97" r="1" class="st0"/><circle id="Oval-2_11_" cx="62" cy="108" r="1" class="st0"/><circle id="Oval-2_12_" cx="59" cy="52" r="1" class="st0"/><circle id="Oval-2_13_" cx="106" cy="51" r="1" class="st0"/><circle id="Oval-2_14_" cx="83" cy="10" r="1" class="st0"/><circle id="Oval-2_15_" cx="152" cy="46" r="1" class="st0"/><circle id="Oval-2_16_" cx="209" cy="60" r="1" class="st0"/><circle id="Oval-2_17_" cx="258" cy="34" r="1" class="st0"/><circle id="Oval-2_18_" cx="598" cy="70" r="1" class="st0"/><circle id="Oval-2_19_" cx="627" cy="37" r="1" class="st0"/><circle id="Oval-2_20_" cx="668" cy="79" r="1" class="st0"/><circle id="Oval-2_21_" cx="728" cy="71" r="1" class="st0"/><circle id="Oval-2_22_" cx="700" cy="41" r="1" class="st0"/><circle id="Oval-2_23_" cx="922" cy="66" r="1" class="st0"/><circle id="Oval-2_24_" cx="1045" cy="64" r="1" class="st0"/><circle id="Oval-2_25_" cx="1059" cy="37" r="1" class="st0"/><circle id="Oval-2_26_" cx="1129" cy="7" r="1" class="st0"/><circle id="Oval-2_27_" cx="1109" cy="48" r="1" class="st0"/><circle id="Oval-2_28_" cx="920" cy="209" r="1" class="st0"/><circle id="Oval-2_29_" cx="811" cy="218" r="1" class="st0"/><circle id="Oval-2_30_" cx="1131" cy="90" r="1" class="st0"/><circle id="Oval-2_31_" cx="940" cy="89" r="1" class="st0"/><circle id="Oval-2_32_" cx="891" cy="160" r="1" class="st0"/><circle id="Oval-2_33_" cx="1105" cy="161" r="1" class="st0"/><circle id="Oval-2_34_" cx="1024" cy="130" r="1" class="st0"/><circle id="Oval-2_35_" cx="791" cy="284" r="1" class="st0"/><circle id="Oval-2_36_" cx="288" cy="256" r="1" class="st0"/><circle id="Oval-2_37_" cx="240" cy="221" r="1" class="st0"/><circle id="Oval-2_38_" cx="193" cy="256" r="1" class="st0"/><circle id="Oval-2_39_" cx="114" cy="271" r="1" class="st0"/><circle id="Oval-2_40_" cx="98" cy="326" r="1" class="st0"/><circle id="Oval-2_42_" cx="131" cy="406" r="1" class="st0"/><circle id="Oval-2_43_" cx="28" cy="376" r="1" class="st0"/><circle id="Oval-2_44_" cx="1" cy="221" r="1" class="st0"/><circle id="Oval-2_46_" cx="73" cy="185" r="1" class="st0"/><circle id="Oval-2_47_" cx="35" cy="141" r="1" class="st0"/><circle id="Oval-2_53_" cx="461" cy="76" r="1" class="st0"/><circle id="Oval-2_54_" cx="404" cy="90" r="1" class="st0"/><circle id="Oval-2_55_" cx="355" cy="64" r="1" class="st0"/><circle id="Oval-2_60_" cx="778" cy="151" r="1" class="st0"/><circle id="Oval-2_61_" cx="750" cy="121" r="1" class="st0"/><circle id="Oval-2_64_" cx="782" cy="26" r="1" class="st0"/><circle id="Oval-2_65_" cx="870" cy="39" r="1" class="st0"/><circle id="Oval-2_68_" cx="1151" cy="180" r="1" class="st0"/><circle id="Oval-2_69_" cx="1125" cy="251" r="1" class="st0"/><circle id="Oval-2_70_" cx="1044" cy="220" r="1" class="st0"/><circle id="Oval-2_78_" cx="400" cy="336" r="1" class="st0"/><circle id="Oval-2_79_" cx="350" cy="382" r="1" class="st0"/><circle id="Oval-2_80_" cx="238" cy="311" r="1" class="st0"/><circle id="Oval-2_81_" cx="187" cy="364" r="1" class="st0"/><circle id="Oval-2_82_" cx="149" cy="426" r="1" class="st0"/><circle id="Oval-2_83_" cx="129" cy="366" r="1" class="st0"/><circle id="Oval-2_84_" cx="196" cy="391" r="1" class="st0"/><circle id="Oval-2_85_" cx="275" cy="376" r="1" class="st0"/><circle id="Oval-2_86_" cx="291" cy="321" r="1" class="st0"/><circle id="Oval-2_87_" cx="388" cy="426" r="1" class="st0"/><circle id="Oval-2_92_" cx="297" cy="438" r="1" class="st0"/><circle id="Oval-2_93_" cx="246" cy="491" r="1" class="st0"/><circle id="Oval-2_94_" cx="255" cy="518" r="1" class="st0"/><circle id="Oval-2_95_" cx="334" cy="503" r="1" class="st0"/><circle id="Oval-2_96_" cx="350" cy="448" r="1" class="st0"/><circle id="Oval-2_100_" cx="-1" cy="506" r="1" class="st0"/><circle id="Oval-2_101_" cx="49" cy="552" r="1" class="st0"/><circle id="Oval-2_102_" cx="161" cy="481" r="1" class="st0"/><circle id="Oval-2_103_" cx="212" cy="534" r="1" class="st0"/><circle id="Oval-2_104_" cx="250" cy="596" r="1" class="st0"/><circle id="Oval-2_105_" cx="203" cy="561" r="1" class="st0"/><circle id="Oval-2_106_" cx="124" cy="546" r="1" class="st0"/><circle id="Oval-2_107_" cx="108" cy="491" r="1" class="st0"/><circle id="Oval-2_108_" cx="18" cy="449" r="1" class="st0"/><circle id="Oval-2_109_" cx="11" cy="596" r="1" class="st0"/><circle id="Oval-2_113_" cx="321" cy="196" r="1" class="st0"/><circle id="Oval-2_114_" cx="372" cy="143" r="1" class="st0"/><circle id="Oval-2_115_" cx="284" cy="131" r="1" class="st0"/><circle id="Oval-2_116_" cx="268" cy="186" r="1" class="st0"/><circle id="Oval-2_121_" cx="502" cy="525" r="1" class="st0"/><circle id="Oval-2_122_" cx="488" cy="498" r="1" class="st0"/><circle id="Oval-2_123_" cx="418" cy="468" r="1" class="st0"/><circle id="Oval-2_124_" cx="438" cy="509" r="1" class="st0"/><circle id="Oval-2_125_" cx="416" cy="551" r="1" class="st0"/><circle id="Oval-2_126_" cx="442" cy="622" r="1" class="st0"/><circle id="Oval-2_130_" cx="872" cy="360" r="1" class="st0"/><circle id="Oval-2_131_" cx="995" cy="362" r="1" class="st0"/><circle id="Oval-2_132_" cx="1009" cy="389" r="1" class="st0"/><circle id="Oval-2_133_" cx="1059" cy="378" r="1" class="st0"/><circle id="Oval-2_134_" cx="955" cy="412" r="1" class="st0"/><circle id="Oval-2_135_" cx="969" cy="439" r="1" class="st0"/><circle id="Oval-2_136_" cx="1019" cy="428" r="1" class="st0"/><circle id="Oval-2_137_" cx="925" cy="542" r="1" class="st0"/><circle id="Oval-2_138_" cx="939" cy="569" r="1" class="st0"/><circle id="Oval-2_139_" cx="989" cy="558" r="1" class="st0"/><circle id="Oval-2_140_" cx="870" cy="217" r="1" class="st0"/><circle id="Oval-2_141_" cx="1081" cy="336" r="1" class="st0"/><circle id="Oval-2_142_" cx="1131" cy="420" r="1" class="st0"/><circle id="Oval-2_143_" cx="1143" cy="358" r="1" class="st0"/><circle id="Oval-2_144_" cx="890" cy="337" r="1" class="st0"/><circle id="Oval-2_145_" cx="841" cy="266" r="1" class="st0"/><circle id="Oval-2_146_" cx="1055" cy="265" r="1" class="st0"/><circle id="Oval-2_147_" cx="974" cy="296" r="1" class="st0"/><circle id="Oval-2_153_" cx="815" cy="452" r="1" class="st0"/><circle id="Oval-2_154_" cx="829" cy="479" r="1" class="st0"/><circle id="Oval-2_155_" cx="635" cy="532" r="1" class="st0"/><circle id="Oval-2_156_" cx="649" cy="559" r="1" class="st0"/><circle id="Oval-2_157_" cx="879" cy="468" r="1" class="st0"/><circle id="Oval-2_158_" cx="901" cy="426" r="1" class="st0"/><circle id="Oval-2_159_" cx="849" cy="548" r="1" class="st0"/><circle id="Oval-2_160_" cx="709" cy="507" r="1" class="st0"/><circle id="Oval-2_161_" cx="871" cy="506" r="1" class="st0"/><circle id="Oval-2_164_" cx="1015" cy="492" r="1" class="st0"/><circle id="Oval-2_165_" cx="1029" cy="519" r="1" class="st0"/><circle id="Oval-2_166_" cx="1039" cy="478" r="1" class="st0"/><circle id="Oval-2_167_" cx="1061" cy="436" r="1" class="st0"/><circle id="Oval-2_150_" cx="412" cy="283" r="1" class="st0"/><circle id="Oval-2_148_" cx="414" cy="117" r="1" class="st0"/><circle id="Oval-2_128_" cx="468" cy="97" r="1" class="st0"/><circle id="Oval-2_120_" cx="498" cy="256" r="1" class="st0"/><circle id="Oval-2_118_" cx="450" cy="221" r="1" class="st0"/><circle id="Oval-2_112_" cx="403" cy="256" r="1" class="st0"/><circle id="Oval-2_110_" cx="614" cy="90" r="1" class="st0"/><circle id="Oval-2_98_" cx="610" cy="336" r="1" class="st0"/><circle id="Oval-2_91_" cx="560" cy="382" r="1" class="st0"/><circle id="Oval-2_89_" cx="448" cy="311" r="1" class="st0"/><circle id="Oval-2_77_" cx="397" cy="364" r="1" class="st0"/><circle id="Oval-2_75_" cx="406" cy="391" r="1" class="st0"/><circle id="Oval-2_73_" cx="485" cy="376" r="1" class="st0"/><circle id="Oval-2_71_" cx="501" cy="321" r="1" class="st0"/><circle id="Oval-2_66_" cx="598" cy="426" r="1" class="st0"/><circle id="Oval-2_62_" cx="507" cy="438" r="1" class="st0"/><circle id="Oval-2_58_" cx="560" cy="448" r="1" class="st0"/><circle id="Oval-2_56_" cx="531" cy="196" r="1" class="st0"/><circle id="Oval-2_51_" cx="582" cy="143" r="1" class="st0"/><circle id="Oval-2_49_" cx="494" cy="131" r="1" class="st0"/><circle id="Oval-2_45_" cx="478" cy="186" r="1" class="st0"/><circle id="Oval-2_1_" cx="628" cy="468" r="1" class="st0"/><circle id="Oval-2_169_" cx="720" cy="386" r="1" class="st0"/><circle id="Oval-2_163_" cx="670" cy="432" r="1" class="st0"/><circle id="Oval-2_152_" cx="611" cy="371" r="1" class="st0"/><circle id="Oval-2_304_" cx="768" cy="418" r="1" class="st0"/><circle id="Oval-2_172_" cx="810" cy="382" r="1" class="st0"/></svg>