<svg xmlns="http://www.w3.org/2000/svg" xmlns:xlink="http://www.w3.org/1999/xlink" id="Layer_1" x="0" y="0" version="1.1" viewBox="0 0 1140 622" xml:space="preserve" style="enable-background:new 0 0 1140 622"><style type="text/css">.st0,.st1{fill:#fff}.st1{fill-opacity:.7}</style><circle id="path-1_1_" cx="25.5" cy="331.5" r="1.5" class="st0"/><circle id="path-3_1_" cx="75.5" cy="411.5" r="1.5" class="st0"/><circle id="path-5_1_" cx="55.5" cy="237.5" r="1.5" class="st0"/><circle id="path-7_1_" cx="89.5" cy="157.5" r="1.5" class="st0"/><circle id="path-9_1_" cx="157.5" cy="119.5" r="1.5" class="st0"/><circle id="path-11_1_" cx="22.5" cy="37.5" r="1.5" class="st0"/><circle id="path-13_1_" cx="180.5" cy="21.5" r="1.5" class="st0"/><circle id="path-15_1_" cx="290.5" cy="9.5" r="1.5" class="st0"/><circle id="path-17_1_" cx="432.5" cy="51.5" r="1.5" class="st0"/><circle id="path-19_1_" cx="322.5" cy="39.5" r="1.5" class="st0"/><circle id="path-21_1_" cx="708.5" cy="207.5" r="1.5" class="st0"/><circle id="path-23_1_" cx="761.5" cy="58.5" r="1.5" class="st0"/><circle id="path-25_1_" cx="811.5" cy="138.5" r="1.5" class="st0"/><circle id="path-27_1_" cx="881.5" cy="88.5" r="1.5" class="st0"/><circle id="path-29_1_" cx="811.5" cy="38.5" r="1.5" class="st0"/><circle id="path-31_1_" cx="1095.5" cy="129.5" r="1.5" class="st0"/><circle id="path-33_1_" cx="1115.5" cy="219.5" r="1.5" class="st0"/><circle id="path-35_1_" cx="965.5" cy="249.5" r="1.5" class="st0"/><circle id="path-37_1_" cx="986.5" cy="129.5" r="1.5" class="st0"/><circle id="path-39_1_" cx="736.5" cy="553.5" r="1.5" class="st0"/><circle id="path-41_1_" cx="167.5" cy="314.5" r="1.5" class="st0"/><circle id="path-43_1_" cx="81.5" cy="278.5" r="1.5" class="st0"/><circle id="path-45_1_" cx="363.5" cy="315.5" r="1.5" class="st0"/><circle id="path-47_1_" cx="333.5" cy="409.5" r="1.5" class="st0"/><circle id="path-49_1_" cx="221.5" cy="332.5" r="1.5" class="st0"/><circle id="path-51_1_" cx="307.5" cy="368.5" r="1.5" class="st0"/><circle id="path-53_1_" cx="226.5" cy="441.5" r="1.5" class="st0"/><circle id="path-55_1_" cx="280.5" cy="459.5" r="1.5" class="st0"/><circle id="path-57_1_" cx="366.5" cy="495.5" r="1.5" class="st0"/><circle id="path-59_1_" cx="35.5" cy="485.5" r="1.5" class="st0"/><circle id="path-61_1_" cx="65.5" cy="579.5" r="1.5" class="st0"/><circle id="path-63_1_" cx="177.5" cy="502.5" r="1.5" class="st0"/><circle id="path-65_1_" cx="91.5" cy="538.5" r="1.5" class="st0"/><circle id="path-67_1_" cx="337.5" cy="174.5" r="1.5" class="st0"/><circle id="path-69_1_" cx="251.5" cy="138.5" r="1.5" class="st0"/><circle id="path-71_1_" cx="986.5" cy="60.5" r="1.5" class="st0"/><circle id="path-73_1_" cx="986.5" cy="60.5" r="1.5" class="st0"/><circle id="Oval-2_126_" cx="442" cy="622" r="1" class="st1"/><circle id="path-75_1_" cx="451.5" cy="580.5" r="1.5" class="st0"/><circle id="path-77_1_" cx="560.5" cy="521.5" r="1.5" class="st0"/><circle id="path-79_1_" cx="560.5" cy="521.5" r="1.5" class="st0"/><circle id="path-81_1_" cx="831.5" cy="337.5" r="1.5" class="st0"/><circle id="path-83_1_" cx="1045.5" cy="296.5" r="1.5" class="st0"/><circle id="path-85_1_" cx="936.5" cy="296.5" r="1.5" class="st0"/><circle id="path-87_1_" cx="936.5" cy="365.5" r="1.5" class="st0"/><circle id="path-89_1_" cx="936.5" cy="365.5" r="1.5" class="st0"/><circle id="path-91_1_" cx="756.5" cy="455.5" r="1.5" class="st0"/><circle id="path-93_1_" cx="756.5" cy="455.5" r="1.5" class="st0"/><circle id="path-95_1_" cx="956.5" cy="495.5" r="1.5" class="st0"/><circle id="path-97_1_" cx="956.5" cy="495.5" r="1.5" class="st0"/><circle id="path-99_1_" cx="1126.5" cy="485.5" r="1.5" class="st0"/><circle id="path-101_1_" cx="1126.5" cy="485.5" r="1.5" class="st0"/><circle id="path-103_1_" cx="1096.5" cy="555.5" r="1.5" class="st0"/><circle id="path-105_1_" cx="1096.5" cy="555.5" r="1.5" class="st0"/><circle id="path-45_2_" cx="573.5" cy="315.5" r="1.5" class="st0"/><circle id="path-47_2_" cx="543.5" cy="409.5" r="1.5" class="st0"/><circle id="path-49_2_" cx="431.5" cy="332.5" r="1.5" class="st0"/><circle id="path-51_2_" cx="517.5" cy="368.5" r="1.5" class="st0"/><circle id="path-53_2_" cx="436.5" cy="441.5" r="1.5" class="st0"/><circle id="path-55_2_" cx="490.5" cy="459.5" r="1.5" class="st0"/><circle id="path-67_2_" cx="547.5" cy="174.5" r="1.5" class="st0"/><circle id="path-69_2_" cx="461.5" cy="138.5" r="1.5" class="st0"/><circle id="path-45_4_" cx="683.5" cy="365.5" r="1.5" class="st0"/><circle id="path-47_4_" cx="653.5" cy="459.5" r="1.5" class="st0"/><circle id="path-51_4_" cx="627.5" cy="418.5" r="1.5" class="st0"/><ellipse id="path-45_6_" cx="688.4" cy="227.6" class="st0" rx="1.5" ry="1.5" transform="matrix(0.2162 -0.9763 0.9763 0.2162 317.3683 850.4645)"/><ellipse id="path-47_6_" cx="603" cy="177.9" class="st0" rx="1.5" ry="1.5" transform="matrix(0.2162 -0.9763 0.9763 0.2162 298.9095 728.2198)"/><ellipse id="path-51_6_" cx="648.7" cy="161.5" class="st0" rx="1.5" ry="1.5" transform="matrix(0.2162 -0.9763 0.9763 0.2162 350.7686 759.8961)"/><circle id="path-47_8_" cx="793.5" cy="409.5" r="1.5" class="st0"/><circle id="path-51_8_" cx="767.5" cy="368.5" r="1.5" class="st0"/><ellipse id="path-45_8_" cx="750.3" cy="304" class="st0" rx="1.5" ry="1.5" transform="matrix(0.2197 -0.9756 0.9756 0.2197 288.8465 969.2027)"/><ellipse id="path-45_10_" cx="544.1" cy="301.4" class="st0" rx="1.5" ry="1.5" transform="matrix(0.8431 -0.5377 0.5377 0.8431 -76.7109 339.8561)"/></svg>